SplineFontDB: 3.0
FontName: MuseJazz
FullName: MuseJazz
FamilyName: MuseJazz
Weight: Medium
Copyright: Created by Werner Schweer
UComments: "2009-3-28: Created." 
Version: 001.000
ItalicAngle: 0
UnderlinePosition: -204
UnderlineWidth: 102
Ascent: 1638
Descent: 410
LayerCount: 2
Layer: 0 0 "Back"  1
Layer: 1 0 "Fore"  0
NeedsXUIDChange: 1
XUID: [1021 643 1332458594 9570944]
FSType: 8
OS2Version: 0
OS2_WeightWidthSlopeOnly: 0
OS2_UseTypoMetrics: 1
CreationTime: 1238249710
ModificationTime: 1251302595
PfmFamily: 17
TTFWeight: 500
TTFWidth: 5
LineGap: 184
VLineGap: 0
OS2TypoAscent: 0
OS2TypoAOffset: 1
OS2TypoDescent: 0
OS2TypoDOffset: 1
OS2TypoLinegap: 184
OS2WinAscent: 0
OS2WinAOffset: 1
OS2WinDescent: 0
OS2WinDOffset: 1
HheadAscent: 0
HheadAOffset: 1
HheadDescent: 0
HheadDOffset: 1
OS2Vendor: 'PfEd'
DEI: 91125

StartChar: A
Encoding: 65 65 0
Width: 1690
VWidth: 0
Flags: W
HStem: 579.338 307.97<640.353 1053.1>
LayerCount: 2
Fore
SplineSet
652.737 579.338 m 1
 668.136 563.939 l 1
 652.737 579.338 l 1
621.94 579.338 m 1
 637.339 563.939 l 1
 621.94 579.338 l 1
914.512 887.308 m 1
 929.91 871.909 l 1
 914.512 887.308 l 1
652.737 594.736 m 1
 668.136 579.338 l 1
 652.737 594.736 l 1
899.113 887.308 m 1
 914.512 871.909 l 1
 899.113 887.308 l 1
883.715 887.308 m 1
 899.113 871.909 l 1
 883.715 887.308 l 1
868.316 887.308 m 1
 883.715 871.909 l 1
 868.316 887.308 l 1
1053.1 918.105 m 1
 1068.5 902.707 l 1
 1053.1 918.105 l 1
883.715 1518.65 m 1
 637.339 887.308 l 1
 1053.1 887.308 l 1
 1045.49 1061.77 989.179 1377.66 883.715 1518.65 c 1
899.113 1984.62 m 0
 1123.07 2065.71 1157.93 1768.53 1191.68 1626.44 c 0
 1295.53 1220.84 1391.87 808.529 1520.35 409.954 c 0
 1574.83 239.277 1669.01 48.8135 1438.06 -36.6016 c 0
 1207.08 -117.336 1241.78 427.986 1136.82 543.645 c 0
 1099.29 584.589 1041.84 579.23 991.504 579.338 c 0
 876.216 579.338 578.347 633.187 493.178 543.645 c 0
 387.437 432.467 390.963 244.082 313.97 117.383 c 0
 270.823 46.6572 105.166 -33.3066 30.7451 38.2041 c 0
 -46.2168 112.163 142.015 418.485 174.444 502.346 c 0
 312.938 860.499 488.573 1203.13 619.8 1564.84 c 0
 676.251 1718.83 726.465 1922.1 899.113 1984.62 c 0
EndSplineSet
Validated: 37
EndChar

StartChar: B
Encoding: 66 66 1
Width: 1304
VWidth: 0
Flags: W
VStem: 24.3379 337.32<250.459 842.915> 61.9512 340.152<1187.32 1761.87>
LayerCount: 2
Fore
SplineSet
378.309 1767.59 m 1x00
 400.903 1645.85 402.252 1508.7 402.103 1384.63 c 0
 402.053 1334.68 372.231 1254.58 400.771 1211.77 c 0
 451.138 1134.88 675.186 1245.52 727.951 1279.07 c 0
 988.896 1444.93 777.919 1651.04 578.113 1734.29 c 0
 509.181 1764.21 451.521 1787.12 378.309 1767.59 c 1x00
428.26 958.584 m 0
 323.679 927.015 365.722 713.156 361.658 630.621 c 0
 361.358 544.688 333.153 347.447 378.309 274.935 c 0
 431.69 193.048 639.554 251.357 710.602 275.617 c 0
 1118.77 414.915 788.325 1064.36 428.26 958.584 c 0
89.707 -2.89453 m 1
 100.797 -8.45508 l 1
 89.707 -2.89453 l 1
861.171 1168.18 m 1
 1260.78 1049.78 1289.89 642.726 1064.24 352.309 c 0
 861.171 93.3291 403.118 -70.9609 78.6016 -2.97754 c 0
 -8.86328 15.6045 26.0527 105.334 24.3379 169.154 c 0x80
 20.042 327.384 58.7539 495.486 40.5557 652.017 c 0
 9.00293 923.135 61.5352 1196.12 61.9512 1467.89 c 0
 61.9512 1551.14 17.3115 1704.8 61.9512 1777.98 c 0x40
 237.996 2062.91 694.667 2080.62 944.423 1917.45 c 0
 1077.63 1829.58 1210.21 1690.27 1168.65 1517.84 c 0
 1130.77 1360.72 976.392 1265.83 861.171 1168.18 c 1
EndSplineSet
Validated: 37
EndChar

StartChar: C
Encoding: 67 67 2
Width: 1634
VWidth: 0
Flags: W
LayerCount: 2
Fore
SplineSet
937.221 2050.64 m 0
 1121.99 2075.13 1301.7 1999.72 1457.9 1901.8 c 0
 1533.73 1855.8 1617.64 1793.79 1579.39 1693.53 c 0
 1447.99 1327.64 992.863 1778.5 728.949 1721.47 c 0
 298.869 1628.51 195.688 1082.79 376.173 738.949 c 0
 447.991 600.102 594.181 494.838 728.949 425.657 c 0
 905.893 334.834 1076.07 343.32 1249.63 438.084 c 0
 1308.83 470.592 1430.94 571.933 1489.5 488.364 c 0
 1629.01 287.695 1240.13 117.988 1110.78 67.5176 c 0
 607.458 -128.587 77.1641 291.67 5.20703 791.017 c 0
 -73.2598 1335.61 393.841 1978.6 937.221 2050.64 c 0
EndSplineSet
Validated: 33
EndChar

StartChar: D
Encoding: 68 68 3
Width: 1395
VWidth: 0
Flags: W
VStem: 22.3838 311.296<1244.3 1782.57> 41.8486 291.831<362.402 851.642>
LayerCount: 2
Fore
SplineSet
333.68 360.064 m 1x00
 848.007 402.072 1132.71 1068.56 869.044 1490.56 c 0
 803.77 1595.04 487.46 1882.24 343.56 1768.63 c 0
 268.144 1711.25 331.665 1488.15 333.68 1408.64 c 0
 354.127 1057.3 333.68 711.337 333.68 360.064 c 1x00
497.52 2056.92 m 0
 987.549 2121.26 1294.93 1595.47 1266.09 1179.26 c 0
 1229.12 645.179 673.304 41.1826 120.688 22.7012 c 0
 26.2344 19.5391 22.0234 106.325 22.3838 179.594 c 0x80
 22.3838 349.316 49.4668 518.53 41.8486 687.744 c 0x40
 28.6592 982.656 22.3838 1276.9 22.3838 1572.48 c 0x80
 22.335 1703.55 -18.6738 1822.71 79.2041 1931.16 c 0
 169.84 2034.12 366.448 2039.75 497.52 2056.92 c 0
EndSplineSet
Validated: 33
EndChar

StartChar: E
Encoding: 69 69 4
Width: 1558
VWidth: 0
Flags: W
HStem: 19.6182 328.32<317.968 1416.83> 895.114 327.696<332.655 1250.18> 1698.17 338.13<421.902 615.71 615.71 615.71 1255.19 1355.16>
VStem: 35.25 283.422<357.871 869.303> 51.0557 267.616<1239.05 1681.67>
LayerCount: 2
Fore
SplineSet
172.764 14.4277 m 1xe0
 183.176 9.20605 l 1
 172.764 14.4277 l 1xe0
756.412 19.6338 m 1
 772.046 4 l 1
 756.412 19.6338 l 1
813.74 14.4277 m 1
 824.152 9.20605 l 1
 813.74 14.4277 l 1
318.672 1239.05 m 1xf0
 467.676 1221.45 621.619 1229.39 772.046 1222.81 c 0
 902.195 1217.1 1223.75 1261.47 1329.95 1191.71 c 0
 1408.52 1140.11 1406.74 910.748 1315.88 873.321 c 0
 1245.74 843.211 1142.12 873.165 1069.08 878.074 c 0
 907.448 888.955 746.688 895.114 584.442 895.114 c 0
 516.937 895.114 379.908 921.41 334.04 858.876 c 0
 287.404 798.202 318.672 655.092 318.672 582.442 c 0
 318.656 528.116 298.536 448.369 315.123 394.84 c 0
 341.356 316.172 519.157 347.938 584.442 347.938 c 2
 1162.89 347.938 l 2
 1229.14 347.938 1334.04 375.657 1395.09 351.347 c 0
 1467.35 322.581 1470.45 191.087 1452.29 129.068 c 0
 1410.08 -15.0107 1282.98 19.6338 1162.89 19.6338 c 0
 891.564 19.6338 621.447 19.6338 349.938 19.6182 c 0
 263.923 19.2119 63.7188 -35.5059 17.835 70.0986 c 0
 -30.6611 181.676 37.2676 383.317 35.25 504.274 c 0xf0
 26.918 841.866 52.9004 1183.1 51.0557 1520.46 c 0xe8
 49.5869 1645.53 14.5518 1890.93 86.9668 2000.14 c 0
 135.665 2073.57 292.438 2052 365.572 2043 c 0
 604.782 2011.59 859.188 2036.37 1100.35 2036.3 c 0
 1171.47 2035.57 1319.22 2060.11 1370.16 2000.13 c 0
 1432.17 1924.98 1397.39 1719.33 1294.3 1698.17 c 0
 1089.16 1656.42 826.811 1699.65 615.71 1692.43 c 0
 542.67 1692.43 437.269 1736.31 370.544 1691.99 c 0
 285.967 1635.82 318.672 1331.67 318.672 1239.05 c 1xf0
EndSplineSet
Validated: 37
EndChar

StartChar: F
Encoding: 70 70 5
Width: 1458
VWidth: 0
Flags: W
HStem: 1700 336<352.21 969.453 1213.5 1307>
LayerCount: 2
Fore
SplineSet
210 2052 m 1
 226 2036 l 1
 210 2052 l 1
175.344 2043.62 m 0
 386 2078.64 647.472 2036 866 2036 c 0
 987.136 2036 1148.5 2062.5 1265.12 2030.91 c 0
 1388.18 1997.6 1362 1773.28 1278.58 1711.87 c 0
 1224.66 1672.3 1148.08 1688.29 1085.44 1686.78 c 0
 914 1682.72 747.584 1699.44 578 1700 c 0
 498 1700 357.904 1743.01 338 1635.68 c 0
 326.976 1553.73 302.448 1290.86 363.648 1229.65 c 0
 411.824 1181.49 530 1204 594 1204 c 0
 778.48 1204 1058 1260.45 1232.5 1210.61 c 0
 1358.45 1172 1314 973.504 1246.35 903.648 c 0
 1145.23 802.944 747.888 859.632 607.28 874.416 c 0
 537.872 881.712 402 912.624 353.648 845.056 c 0
 198.192 628 533.472 59.5996 130 11.0078 c 0
 -26.7041 -7.87207 32.8164 356 33.9355 452 c 0
 38.7676 858.208 47.9043 1262.27 50 1668 c 0
 50 1789.79 24.9443 2018.93 175.344 2043.62 c 0
EndSplineSet
Validated: 37
EndChar

StartChar: G
Encoding: 71 71 6
Width: 1817
VWidth: 0
Flags: W
LayerCount: 2
Fore
SplineSet
1075.2 2044.76 m 0
 1224.16 2064.13 1746.72 1915.47 1620.91 1693.6 c 0
 1450.67 1395.36 1256.35 1676.53 1041.07 1727.73 c 0
 870.4 1769.8 648.295 1698.48 512 1597.45 c 0
 212.497 1374.81 230.076 826.801 438.972 550.134 c 0
 602.026 337.039 946.33 245.972 1174.44 423.209 c 0
 1221 459.39 1249.18 515.881 1275.58 567.2 c 0
 1308.14 630.534 1407.95 782.019 1354.29 849.927 c 0
 1260.25 968.967 587.588 772 832.666 1095.52 c 0
 944.981 1243.6 1473.6 1260.35 1618.12 1147.47 c 0
 1778.42 1027.5 1689.6 795.842 1616.93 652.533 c 0
 1433.6 302.12 1203.51 48.7148 785.066 6.91797 c 0
 166.161 -54.9316 -68.2666 608.638 24.3203 1113.33 c 0
 119.467 1637.98 570.573 1979.11 1075.2 2044.76 c 0
EndSplineSet
Validated: 33
EndChar

StartChar: asciicircum
Encoding: 94 94 7
Width: 671
VWidth: 0
Flags: W
VStem: 0.298828 156.393<1613.57 2031.85> 47.9141 159.598<1094.57 1408.56>
LayerCount: 2
Fore
SplineSet
223.457 1092.51 m 1x00
 302.174 1131.72 437.386 1323.32 348.561 1407.35 c 0
 234.019 1515.69 203.255 1285.51 207.512 1224.17 c 0
 208.828 1177.97 208.828 1136.4 223.457 1092.51 c 1x00
194.2 1604.51 m 1
 258.609 1644.63 320.576 1706.49 399 1716.09 c 0
 516.028 1730.54 633.057 1601.44 622.671 1487.49 c 0
 603.8 1302.52 457.515 1090.26 349.16 946.229 c 0
 296.6 879.961 217.737 749.664 121.057 746.943 c 0
 10.4502 741.429 51.3223 954.011 47.9141 1021.86 c 0x40
 43.0869 1280.55 10.041 1536.77 0.298828 1794.69 c 0x80
 -2.24707 1862.21 -11.9609 2014.11 66.5068 2046.5 c 0
 106.429 2062.86 146.628 2038.12 156.692 1997.89 c 0
 185.949 1880.98 188.992 1725.67 194.2 1604.51 c 1
EndSplineSet
Validated: 33
EndChar

StartChar: underscore
Encoding: 95 95 8
Width: 919
VWidth: 0
Flags: W
VStem: 505.421 196.67<907.494 1137.49> 505.421 169.384<1414.66 1520.24>
LayerCount: 2
Fore
SplineSet
336.037 1460.86 m 1x40
 366.835 1276.08 l 1
 513.367 1316.2 510.194 1383.87 505.421 1522.45 c 1
 336.037 1460.86 l 1x40
336.037 1630.24 m 1
 577.132 1680.84 406.994 1843.12 505.298 1997.53 c 0
 585.986 2122.99 643.269 1964.34 644.008 1892.02 c 0
 644.008 1843.94 648.272 1799.62 659.406 1753.43 c 1
 708.496 1776.25 936.579 1834.33 872.875 1695.33 c 0
 842.771 1630.24 744.698 1642.88 697.718 1597.4 c 0
 656.064 1557.07 674.805 1467.49 674.805 1414.66 c 1x40
 905.781 1401.88 732.487 1278.75 702.091 1181.7 c 0
 674.805 1098.93 705.602 1005.72 665.981 921.91 c 0
 582.414 758.332 509.425 912.578 505.421 1014.3 c 0
 505.421 1055.38 505.421 1096.39 505.421 1137.49 c 1x80
 474.624 1152.89 l 1
 366.835 1106.69 l 1
 428.429 843.146 159.602 690.84 197.451 1029.7 c 1
 160.941 1029.7 125.863 1022.54 89.6465 1022.38 c 0
 46.6533 1022.2 -23.1016 1048.05 -0.0195312 1104.12 c 0
 58.8652 1251.18 216.207 1206.54 166.654 1414.66 c 1
 129.267 1405.79 40.54 1379.71 24.249 1434.71 c 0
 3.70703 1504.02 134.856 1542.58 157.369 1599.44 c 0
 196.327 1699.72 135.103 1824.57 197.267 1920.52 c 0
 228.248 1968.31 300.79 1977.4 326.737 1919.3 c 0
 357.873 1849.56 335.591 1707.23 336.037 1630.24 c 1
EndSplineSet
Validated: 33
EndChar

StartChar: uni0080
Encoding: 128 128 9
Width: 2096
VWidth: 0
Flags: W
VStem: 837.186 234.064<212.402 617.954>
LayerCount: 2
Fore
SplineSet
1590.79 671.151 m 1
 1559.76 562.546 l 1
 1637.33 562.546 l 1
 1590.79 671.151 l 1
272 593.576 m 1
 252.668 524.937 237.417 453.939 205.099 391.879 c 0
 190.468 360.849 19.5371 77.5264 0.918945 221.212 c 0
 -7.28809 287.912 45.5254 376.363 64.9658 438.424 c 0
 119.89 609.091 170.748 779.758 237.029 950.424 c 0
 259.635 1007.8 330.398 1178.05 419.192 1120.36 c 0
 458.182 1094.93 466.886 1022.94 477.809 981.455 c 0
 514.191 841.818 528.016 700.46 566.787 562.546 c 1
 673.253 691.166 734.584 849.793 811.244 996.737 c 0
 835.93 1043.52 875.617 1124.21 938.857 1125 c 0
 1013.08 1125.95 1007.14 1000.4 1016.73 950.424 c 0
 1040.36 826.303 1046.42 700.32 1071.25 578.061 c 0
 1087.85 496.28 1131.77 412.933 1102.31 329.818 c 0
 1020.45 97.0908 870.854 112.606 837.186 345.333 c 0
 822.741 445.096 823.688 546.068 784 640.121 c 1
 713.375 490.788 634.123 308.066 535.758 174.667 c 0
 509.707 137.771 445.94 58.0547 392.118 97.0908 c 0
 356.294 124.305 362.5 197.428 355.549 236.728 c 0
 334.061 353.293 323.712 484.97 272 593.576 c 1
1714.85 1059.03 m 0
 1807.95 1083.26 1847.91 887.836 1870.06 826.303 c 0
 1936.68 649.71 2257.94 167.359 1932.12 66.0605 c 0
 1826.76 35.0303 1819.16 190.182 1758.03 236.728 c 0
 1609.44 351.399 1385.04 202.672 1311.52 81.5762 c 0
 1293.25 47.8457 1243.19 -15.1143 1199.57 29.5537 c 0
 1144.14 86.3232 1249.46 228.722 1275.69 283.272 c 0
 1364.84 477.445 1451.15 669.383 1554.96 857.333 c 0
 1590.79 924.049 1631.41 1040.54 1714.85 1059.03 c 0
EndSplineSet
Validated: 33
EndChar

StartChar: uni0081
Encoding: 129 129 10
Width: 1513
VWidth: 0
Flags: W
VStem: 846.277 254.393<194.436 577.174> 1240.68 221.76<89.0425 745.579> 1240.68 237.45<235.486 815.543>
LayerCount: 2
Fore
SplineSet
1418.71 1045.68 m 0xc0
 1527.95 1074 1478.13 862.475 1478.13 808.231 c 0xa0
 1477.83 626.168 1516.08 356.129 1462.44 184.868 c 0
 1441.16 116.942 1392.34 21.6816 1314.74 6.84082 c 0
 1194.16 -12.4521 1240.64 177.492 1240.68 244.29 c 0
 1240.68 432.29 1222.83 689.507 1284.7 867.594 c 0
 1305.92 926.957 1348.78 1030.23 1418.71 1045.68 c 0xc0
617.377 541.102 m 1
 636.788 619.059 680.019 689.507 715.77 763.71 c 0
 750.941 837.602 838.472 1050.15 941.896 1038.77 c 0
 1008.92 1030.84 1010.88 916.954 1018.07 867.594 c 0
 1047.5 701.603 1129.75 452.058 1100.67 288.812 c 0
 1088.91 222.029 976.994 40.1426 893.412 119.748 c 0
 839.985 169.642 854.826 296.736 846.277 363.015 c 0
 836.305 437.218 821.271 511.034 810.305 585.623 c 1
 592.43 155.246 l 1
 457.514 62.5225 l 1
 397.736 184.928 l 1
 305.725 555.942 l 1
 275.479 481.739 251.646 407.536 226.238 333.333 c 0
 201.543 259.131 170.527 153.777 109.636 102.384 c 0
 64.6543 64.4219 2.79883 73.5195 0.617188 140.406 c 0
 -1.56445 207.931 50.5557 285.829 72.8467 348.174 c 0
 131.57 511.42 195.252 677.694 264.586 837.913 c 0
 288.984 894.277 341.713 1024.18 422.906 1004.84 c 0
 556.768 971.479 531.51 632.653 617.377 541.102 c 1
EndSplineSet
Validated: 33
EndChar

StartChar: six
Encoding: 54 54 11
Width: 916
VWidth: 0
Flags: WO
LayerCount: 2
Fore
SplineSet
348.812 1291.47 m 1
 360.653 1259.49 371.34 1236.18 398.519 1213.53 c 0
 641.383 1011.11 654.379 1468.19 428.484 1352.91 c 0
 399.597 1337.67 374.404 1311.15 348.812 1291.47 c 1
271.819 1414.66 m 1
 425.805 1537.85 714.049 1845.65 856.824 1491.65 c 0
 896.891 1392.29 833.218 1301.44 791.996 1214.48 c 0
 659.508 934.983 266.538 720.867 66.2344 1075.89 c 0
 -82.3457 1337.67 148.108 1734.52 348.812 1902.35 c 0
 422.401 1963.82 610.586 2103.51 709.091 2015.2 c 0
 779.385 1952.82 680.449 1845.82 632.514 1806.31 c 0
 573.275 1756.35 493.373 1774.34 425.805 1741.59 c 0
 308.376 1684.4 271.819 1533.92 271.819 1414.66 c 1
EndSplineSet
Validated: 33
EndChar

StartChar: seven
Encoding: 55 55 12
Width: 908
VWidth: 0
Flags: W
HStem: 1705.19 292.92<77.7756 536.687> 2027.51 20G<868.803 868.803>
LayerCount: 2
Fore
SplineSet
859.829 2047.51 m 1
 868.803 2043.01 l 1
 859.829 2047.51 l 1
540.947 1728.63 m 1
 450.027 1728.58 361.761 1707.17 271.474 1705.19 c 0
 106.192 1701.56 -38.4209 1769.05 33.7979 1944.2 c 0
 46.1934 1974.65 55.8945 2007.23 85.9141 2025.05 c 0
 150.184 2071.15 244.526 2011.58 311.895 1998.11 c 0
 427.916 1977.41 572.894 1995.8 689.158 2016.01 c 0
 736.504 2024.23 823.881 2078.11 863.925 2028.52 c 0
 942.328 1930.74 715.404 1723.65 671.912 1647.79 c 0
 604.273 1529.81 527.474 1391.79 504.865 1257.05 c 0
 485.005 1145.88 517.045 990.651 455.471 893.264 c 0
 389.328 789.771 284.314 782.55 284.947 920.211 c 0
 284.947 1070.91 329.195 1226.1 384.652 1364.84 c 0
 433.158 1486.11 490.205 1606.78 540.947 1728.63 c 1
EndSplineSet
Validated: 33
EndChar

StartChar: nine
Encoding: 57 57 13
Width: 838
VWidth: 0
Flags: W
VStem: 371.445 230.086<884.649 1206.74>
LayerCount: 2
Fore
SplineSet
353.04 1779.02 m 0
 132.948 1743.11 274.793 1527.17 448.613 1559.71 c 0
 721.68 1609.09 557.84 1812.46 353.04 1779.02 c 0
448.613 1308.72 m 1
 339.387 1300.08 223.552 1263.51 120.934 1322.37 c 0
 -29.2529 1411.6 15.9531 1592.96 76.4512 1718.32 c 0
 182.906 1936.77 349.736 2091.94 612.453 2034.82 c 0
 1063.01 1936.64 648.908 1463.73 601.531 1226.8 c 0
 576.203 1100.18 634.148 823.508 434.96 797.84 c 0
 370.462 789.402 369.179 870.994 371.445 915.095 c 0
 378.367 1049.31 400.963 1182.43 448.613 1308.72 c 1
EndSplineSet
Validated: 33
EndChar

StartChar: uni0082
Encoding: 130 130 14
Width: 916
VWidth: 0
Flags: W
VStem: 166.686 227.883<982.208 1562.52> 620.172 229.156<1149.86 1598.51>
LayerCount: 2
Fore
SplineSet
859.1 1208.41 m 1
 863.986 1198.67 l 1
 859.1 1208.41 l 1
181.314 1569.26 m 5
 89.7393 1505.84 -40.3525 1463.79 41.3047 1627.77 c 4
 90.4707 1726.49 177.496 1801.94 239.828 1891.07 c 4
 271.616 1932.22 310.543 2004.79 370.842 2000.13 c 4
 467.814 1992.62 400.567 1749.04 393.355 1684.97 c 4
 371.486 1490.88 437.52 1257.08 394.569 1071.89 c 4
 382.238 1018.73 254.457 787.316 184.152 888.341 c 4
 134.342 959.831 163.979 1171.92 166.686 1257.89 c 4
 174.189 1362.25 181.314 1464.44 181.314 1569.26 c 5
620.172 1598.51 m 1
 588.954 1572.26 459.257 1478.41 467.143 1583.89 c 4
 473.886 1710.1 623.023 1850.13 690.887 1949.54 c 0
 715.169 1985.12 745.377 2037.37 795.085 2037.37 c 0
 895.027 2037.37 851.58 1777.92 849.328 1715.54 c 0
 842.291 1521.06 908.135 1273.37 860.694 1086.51 c 0
 846.666 1031.23 705.793 778.846 643.621 914.365 c 0
 600.131 1009.19 634.8 1187.63 634.8 1291.31 c 0
 634.639 1393.71 620.172 1495.35 620.172 1598.51 c 1
EndSplineSet
Validated: 33
EndChar

StartChar: uni0083
Encoding: 131 131 15
Width: 1256
VWidth: 0
Flags: W
VStem: 186.364 188.848<1001.41 1084.69 1084.69 1084.69 1254.94 1609.2>
LayerCount: 2
Fore
SplineSet
191.156 1614.11 m 1
 166.58 1596.88 144.763 1578.12 121.148 1558.38 c 0
 48.4238 1502.65 -14.8555 1538.1 23.9727 1628.04 c 0
 79.7012 1748.61 163.293 1833.82 246.885 1934.49 c 0
 279.639 1973.16 323.078 2046 384.198 2032.07 c 0
 464.362 2014.85 400.136 1799.18 400.136 1739.5 c 0
 399.885 1583.96 380.506 1432.99 372.272 1279.74 c 0
 370.795 1213.09 394.146 1150.97 375.212 1084.69 c 0
 356.445 1019.03 219.021 809.872 166.469 959.306 c 0
 124.144 1081.14 182.254 1200.4 186.364 1321.54 c 0
 189.666 1418.67 168.712 1519.58 191.156 1614.11 c 1
818.096 1697.7 m 5
 661.904 1704.4 414.068 1722.95 522.193 1934.49 c 4
 537.992 1965.67 553.388 1997.53 584.219 2018 c 4
 664.844 2073.86 797.044 1987.79 887.755 1978.72 c 4
 966.93 1970.79 1156.15 2057.72 1211.19 1995.8 c 4
 1295.96 1900.38 1066.14 1763.42 1053.82 1683.77 c 4
 1046.22 1635.13 1116.71 1586.25 1135.4 1544.39 c 4
 1180.33 1438.68 1142.6 1299.94 1077.17 1210.08 c 4
 982.199 1079.65 859.752 990.5 706.639 940.79 c 4
 648.725 921.996 528.115 898.215 546.254 1001.1 c 4
 575.4 1166.54 702.334 1164.13 818.096 1223.71 c 4
 854.276 1242.33 926.012 1282.26 901.688 1333.42 c 4
 832.027 1485.68 625.555 1249.34 542.646 1275.73 c 4
 475.592 1297.07 518.182 1380.86 539.455 1419.06 c 4
 608.893 1543.26 734.504 1586.25 818.096 1697.7 c 5
EndSplineSet
Validated: 33
EndChar

StartChar: uni0084
Encoding: 132 132 16
Width: 2518
VWidth: 0
Flags: W
VStem: 433.798 169.246<1925.93 2269.51> 755.689 201.875<1149.72 1762.35> 1811.49 208.58<1112.21 1586.82>
LayerCount: 2
Fore
SplineSet
2310.3 1413.35 m 0
 2363.78 1439.07 2455.06 1363.88 2466.24 1301.17 c 0
 2480.58 1218.03 2396.42 1078.01 2332.84 1052.53 c 0
 2158.3 981.889 2193.11 1357.09 2310.3 1413.35 c 0
249.732 1612.29 m 0
 164.938 1565.6 179.604 1318.04 297.752 1379.16 c 0
 435.083 1454.88 405.762 1698.21 249.732 1612.29 c 0
412.236 1241.64 m 1
 340.289 1180.52 272.311 1086.02 183.268 1064.52 c 0
 93.0918 1043.01 16.1201 1137.83 8.08105 1241.64 c 0
 -4.86914 1408.84 73.7568 1597.1 149.686 1730.52 c 0
 189.641 1800.75 245.306 1860.2 310.473 1895.19 c 0
 346.917 1913.94 399.325 1911.13 417.235 1959.78 c 0
 447.511 2048.12 406.945 2169.43 433.798 2265.37 c 0
 448.185 2316.75 582.945 2562.06 610.588 2401.2 c 0
 641.205 2213.91 603.044 1955.65 603.044 1761.14 c 0
 603.044 1669.47 593.783 1574.26 605.893 1486.11 c 0
 615.637 1415.2 657.615 1362.59 639.322 1287.48 c 0
 623.639 1223.08 521.175 997.168 445.348 1083.07 c 0
 415.582 1116.38 417.02 1195.8 412.236 1241.64 c 1
908.336 2265.37 m 0
 958.938 2284.3 1021.23 2222.83 1010.1 2158.41 c 0
 1000.69 2100.09 917.494 2000.68 870.123 1985.94 c 0
 716.295 1938.09 815.565 2234.81 908.336 2265.37 c 0
1518.92 2082.01 m 1
 1531.64 2066.73 l 1
 1518.92 2082.01 l 1
907.84 1898.66 m 0
 989.149 1908.88 959.218 1745.86 957.564 1689.1 c 0
 951.025 1527.35 1037.8 1078.64 819.293 1053.12 c 0
 737.805 1043.01 755.689 1195.8 755.689 1256.92 c 0
 755.689 1423.73 729.358 1628.03 804.523 1776.42 c 0
 828.629 1822.26 855.164 1894.14 907.84 1898.66 c 0
1429.88 1608.35 m 1
 1270.67 1512.82 1353.55 1190.45 1175.33 1092.25 c 0
 1073.7 1037.17 1084.77 1221.41 1091.83 1287.48 c 0
 1106.89 1428.48 1073.7 1597.76 1123.15 1730.58 c 0
 1182.69 1892.35 1283.23 1968.2 1315.39 1761.14 c 1
 1459.43 1879.44 1602.43 2005.62 1658.85 1715.3 c 1
 1690.99 1759.39 1721.05 1805.97 1760.61 1840.76 c 0
 2046.85 2091.13 2078.1 1394.13 2020.07 1195.79 c 0
 2002.3 1139.77 1882.74 951.192 1824.21 1037.02 c 0
 1798.01 1076.21 1811.48 1164 1811.49 1211.08 c 0
 1811.49 1347.45 1811.49 1459.3 1786.05 1593.07 c 1
 1706.66 1464.78 1696.98 1287.43 1610.27 1167.86 c 0
 1580.96 1127.44 1524.49 1055.64 1473.56 1083.08 c 0
 1436.59 1102.99 1442.44 1171.02 1442.6 1210.49 c 0
 1442.6 1344.09 1442.6 1475.8 1429.88 1608.35 c 1
EndSplineSet
Validated: 33
EndChar

StartChar: uni0085
Encoding: 133 133 17
Width: 2298
VWidth: 0
Flags: WO
LayerCount: 2
Fore
SplineSet
394.021 318.578 m 1
 307.263 494.448 -30.748 393.004 2.41406 667.496 c 0
 26.3223 867.274 218.986 1045.18 409.192 1084.45 c 0
 500.048 1103.22 647.731 1090.11 682.26 985.422 c 0
 709.914 906.597 600.49 758.519 515.324 772.581 c 0
 454.703 781.305 406.325 833.885 348.511 849.541 c 0
 313.104 862.679 251.117 864.711 242.318 817.016 c 0
 234.339 758.519 303 724.097 348.511 709.974 c 0
 458.011 674.217 591.1 681.924 647.746 561.076 c 0
 752.013 338.618 476.533 118.238 287.83 51.3818 c 0
 216.165 26.002 84.8809 -9.07227 23.9717 56.1758 c 0
 -20.584 103.902 23.6221 171.38 55.4805 212.157 c 0
 136.126 318.578 270.535 301.966 394.021 318.578 c 1
2032.42 1070.59 m 0
 2274.95 1104.22 2389.9 823.402 2123.38 758.519 c 0
 2062.73 743.348 2013.6 802.315 1956.57 812.92 c 0
 1926.23 818.138 1865.55 815.787 1875.12 772.111 c 0
 1891.29 675.779 2143.17 646.137 2205.77 561.076 c 0
 2375.62 330.305 1946.72 12.6826 1744.19 0 c 0
 1637.99 -5.50684 1528.37 21.1328 1475.96 121.363 c 0
 1425.61 212.385 1521.76 373.661 1622.82 387.952 c 0
 1698.67 398.905 1733.75 313.571 1796.36 288.191 c 0
 1833.23 273.066 1922.5 264.571 1931.83 318.578 c 0
 1945.15 399.542 1676.74 455.111 1629.35 515.793 c 0
 1436 758.519 1823.34 1041.58 2032.42 1070.59 c 0
1364.93 1046.76 m 0
 1508.06 1089.38 1474.99 772.476 1469.75 697.837 c 0
 1451.64 439.334 1278.88 50.0625 985.666 7.70703 c 0
 841.412 -13.1221 784.674 106.192 769.004 227.556 c 0
 742.288 430.642 709.277 877.834 924.984 986.074 c 0
 997.045 1025.24 1028.43 955.415 1030.87 895.052 c 0
 1036.81 748.415 1006.6 601.263 1016.01 455.111 c 0
 1020.59 409.6 1036.29 287.888 1106.1 308.656 c 0
 1171.31 328.044 1185.63 430.338 1198.05 485.452 c 0
 1235.89 650.399 1136.16 984.375 1364.93 1046.76 c 0
EndSplineSet
Validated: 33
EndChar

StartChar: uni0086
Encoding: 134 134 18
Width: 953
VWidth: 0
Flags: W
HStem: 1563.74 316.51<47.719 331.03> 1578.13 316.5<607.834 855.095>
VStem: 350.738 257.096<1119.18 1241.04 1469.37 1563.74>
LayerCount: 2
Fore
SplineSet
607.834 1232.85 m 1x20
 621.674 1218.47 l 1
 607.834 1232.85 l 1x20
344.87 1117.76 m 1
 358.711 1103.38 l 1
 344.87 1117.76 l 1
331.03 1880.25 m 1xa0
 348.428 2023.33 353.438 2153.59 449.932 2268.06 c 0
 476.656 2297.45 538.633 2369.39 585.44 2330.43 c 0
 615.308 2303.24 598.367 2245.82 593.994 2211.13 c 0
 583.268 2103.41 593.98 2002.6 593.994 1894.63 c 1
 672.551 1894.63 840.377 1927.79 906.256 1879.84 c 0
 951.735 1846.75 925.909 1779.54 915.516 1736.38 c 0
 874.244 1559.5 756.99 1578.13 607.834 1578.13 c 1x60
 607.834 1437.16 653.617 1203.78 548.252 1097.89 c 0
 513.804 1063.26 432.243 992.34 380.896 1031.44 c 0
 349.922 1056.03 355.278 1125.14 350.738 1160.92 c 0
 334.047 1290.4 344.87 1431.04 344.87 1563.74 c 1
 268.915 1567.71 105.753 1540.39 44.7871 1589.37 c 0
 -18.8359 1640.47 11.0029 1822.7 73.5195 1865.46 c 0
 133.572 1905.9 261.511 1880.25 331.03 1880.25 c 1xa0
EndSplineSet
Validated: 37
EndChar

StartChar: uni0087
Encoding: 135 135 19
Width: 833
VWidth: 0
Flags: W
LayerCount: 2
Fore
SplineSet
359.641 1969.01 m 0
 197.964 1917.05 355.502 1745.81 468.886 1798.43 c 0
 569.319 1845.05 450.811 2001.83 359.641 1969.01 c 0
424.312 2318.4 m 0
 606.65 2379.23 780 2171.82 779.127 2001.83 c 0
 775.15 1792.66 572.682 1533.44 375.809 1473.48 c 0
 177.124 1411.13 -0.574219 1590 13.8633 1788.52 c 0
 27.751 1979.53 245.691 2258.59 424.312 2318.4 c 0
EndSplineSet
Validated: 33
EndChar

StartChar: uni0088
Encoding: 136 136 20
Width: 520
VWidth: 0
Flags: W
VStem: 2.54102 139.502<1698.46 1793.02 1873.48 1999.67>
LayerCount: 2
Fore
SplineSet
157.542 1356.45 m 1
 177.132 1372 194.521 1385.29 210.407 1403.09 c 0
 332.194 1558.03 118.067 1540.98 157.542 1356.45 c 1
2.55664 1045.54 m 1
 -12.9414 1245.62 2.55664 1449.73 2.54102 1651.82 c 0
 2.06055 1753.31 -21.0938 1863.89 18.0557 1961.81 c 0
 44.5898 2024.91 109.141 2030.92 130.822 1961.81 c 0
 156.131 1881.19 142.043 1782.03 142.043 1698.46 c 1
 246.271 1818.05 510.008 1947.18 496.275 1667.36 c 0
 486.853 1473.4 203.387 1061.09 2.55664 1045.54 c 1
EndSplineSet
Validated: 33
EndChar

StartChar: uni0089
Encoding: 137 137 21
Width: 840
VWidth: 0
Flags: W
VStem: 444.67 135.119<1985.41 2129.07> 489.709 123.979<1288.1 1331.63>
LayerCount: 2
Fore
SplineSet
489.709 1199.13 m 1,0,-1
369.604 1599.98 m 1,1,-1
 429.656 1625.74 444.67 1659.46 459.683 1723.32 c 1,4,-1
 369.604 1738.73 347.369 1680.19 369.604 1599.98 c 1,1,-1
444.67 1892.91 m 1,7,-1
 435.512 1951.96 428.726 2053.04 459.683 2106.39 c 0,10,-1
 532.227 2229.02 579.293 2041.24 579.789 1985.41 c 1,13,-1
 609.814 1995.79 639.316 2009.8 669.868 2023.74 c 0,16,-1
 706.471 2040.37 849.021 2062.5 801.414 1975.71 c 0,19,-1
 772.123 1921.74 684.881 1897.69 639.842 1859.62 c 0,22,-1
 618.732 1841.24 590.538 1815.82 594.802 1784.72 c 0,25,-1
 608.523 1702.98 729.08 1767.15 748.657 1690.43 c 0,28,-1
 768.039 1614.53 654.824 1598.68 624.828 1549.49 c 0,31,-1
 594.802 1499.17 623.507 1438.17 613.688 1384.14 c 0,34,-1
 601.002 1314.27 540.635 1243.48 489.709 1199.13 c 1,37,-1
 459.683 1476.64 l 1,38,-1
 306.713 1392.42 418.697 1112.02 249.498 1075.79 c 1,41,-1
 234.484 1353.3 l 1,42,-1
 209.053 1347.32 184.266 1337.88 159.043 1333.4 c 0,45,-1
 104.815 1318.58 1.35938 1322.47 65.541 1406.88 c 0,48,-1
 137.694 1500.85 249.498 1499.03 219.471 1646.23 c 1,51,-1
 185.391 1630.81 -46.8789 1547.07 34.2383 1673.86 c 0,54,-1
 76.5449 1738.73 174.432 1742.76 211.619 1815.82 c 0,57,-1
 245.174 1884.04 204.458 1973.14 242.201 2044.72 c 0,60,-1
 318.559 2193.39 352.953 1903.96 354.59 1862.07 c 1,63,-1
 444.67 1892.91 l 1,7,-1
EndSplineSet
Validated: 33
EndChar

StartChar: uni008A
Encoding: 138 138 22
Width: 766
VWidth: 0
Flags: W
LayerCount: 2
Back
SplineSet
1996.31 177.07 m 1
 2010.73 162.647 l 1
 1996.31 177.07 l 1
1996.31 191.493 m 1
 2010.73 177.07 l 1
 1996.31 191.493 l 1
1996.31 205.916 m 1
 2010.73 191.493 l 1
 1996.31 205.916 l 1
2832.82 220.338 m 1
 2847.24 205.916 l 1
 2832.82 220.338 l 1
6 869.353 m 1
 20.4229 854.93 l 1
 6 869.353 l 1
4851.97 955.888 m 1
 4866.39 941.465 l 1
 4851.97 955.888 l 1
5270.22 1460.68 m 1
 5284.65 1446.25 l 1
 5270.22 1460.68 l 1
4837.55 970.31 m 1
 4851.97 955.888 l 1
 4837.55 970.31 l 1
5342.34 1749.13 m 1
 5356.76 1734.7 l 1
 5342.34 1749.13 l 1
5342.34 1763.55 m 1
 5356.76 1749.13 l 1
 5342.34 1763.55 l 1
1361.72 782.816 m 1
 1185.99 824.656 992.545 782.816 813.662 782.816 c 0
 752.871 782.73 646.865 778.765 661.908 869.353 c 0
 706.834 1140.93 1090.29 1071.27 1289.61 1071.27 c 0
 1354.45 1071.27 1472.83 1095.81 1530.76 1066.23 c 0
 1586.52 1037.78 1581.42 949.311 1570.59 898.197 c 0
 1539.91 753.294 1452.74 605.68 1376.14 479.943 c 0
 1145.38 94.6885 556.71 -209.208 196.521 205.916 c 0
 -58.3389 499.746 -45.2861 1028 125.115 1359.72 c 0
 265.605 1637.38 588.224 2056.54 943.465 2034.51 c 0
 1055.71 2027.54 1153.85 1965.46 1246.34 1907.77 c 0
 1347.3 1845.61 1491.52 1748.69 1515.42 1619.32 c 0
 1529.97 1536.39 1432.07 1374.14 1332.87 1399.39 c 0
 1285.05 1411.25 1250.49 1483.82 1216.87 1517.8 c 0
 1137.72 1597.76 1014.45 1699.5 900.197 1719.82 c 0
 389.265 1810.7 117.587 1172.23 236.761 753.972 c 0
 363.088 314.618 816.215 153.273 1173.61 456.564 c 0
 1267.84 536.538 1317.24 671.057 1361.72 782.816 c 1
5688.48 1648.17 m 1
 5792.03 1636.6 5911.58 1674.71 6005.14 1614.36 c 0
 6101.92 1551.94 6109.14 1395.38 6055.78 1302.03 c 0
 5962.51 1140.22 5613.61 866.121 5414.45 999.155 c 0
 5305.14 1074.02 5425.31 1186.65 5500.99 1233.68 c 0
 5558.46 1268.18 5883.41 1137.21 5818.28 1330.66 c 0
 5769.3 1480.9 5605.3 1393.54 5515.41 1350.93 c 0
 5470.84 1329.81 5410.34 1325.72 5405.98 1388.56 c 0
 5384.75 1699.14 5551.83 1905.81 5832.7 1985.96 c 0
 5886.77 2001.39 6005.77 2066.42 6058.66 2036.55 c 0
 6124.07 1994.31 6040.01 1919.8 6009.67 1889.46 c 0
 5901.64 1781.42 5738.6 1799.58 5688.48 1648.17 c 1
EndSplineSet
Fore
SplineSet
338.479 1648.17 m 5
 442.032 1636.6 561.581 1674.71 655.14 1614.36 c 4
 751.915 1551.94 759.141 1395.38 705.777 1302.03 c 4
 612.507 1140.22 263.611 866.121 64.4512 999.155 c 4
 -44.8574 1074.02 75.3105 1186.65 150.986 1233.68 c 4
 208.459 1268.18 533.414 1137.21 468.281 1330.66 c 4
 419.303 1480.9 255.305 1393.54 165.408 1350.93 c 4
 120.843 1329.81 60.3398 1325.72 55.9844 1388.56 c 4
 34.7549 1699.14 201.825 1905.81 482.704 1985.96 c 4
 536.773 2001.39 655.774 2066.42 708.662 2036.55 c 4
 774.068 1994.31 690.014 1919.8 659.668 1889.46 c 4
 551.645 1781.42 388.598 1799.58 338.479 1648.17 c 5
EndSplineSet
Validated: 33
EndChar

StartChar: uni008B
Encoding: 139 139 23
Width: 2182
VWidth: 0
Flags: W
LayerCount: 2
Fore
SplineSet
1634.68 1599.16 m 0
 1534.72 1564.94 1508.84 1322.4 1649.45 1369.71 c 0
 1755.16 1406.05 1767.72 1644.66 1634.68 1599.16 c 0
1634.68 1599.16 m 1
294.328 1646.36 m 0
 193.26 1610.62 148.26 1342.03 294.312 1378.88 c 0
 412.715 1413.23 421.872 1693.57 294.328 1646.36 c 0
294.328 1646.36 m 1
926.853 1662.1 m 0
 830.016 1628.71 750.332 1331.68 911.747 1388.68 c 0
 1025.83 1426.08 1077.45 1714.51 926.853 1662.1 c 0
926.853 1662.1 m 1
369.629 1190.07 m 1
 335.908 1165.16 302.596 1138.15 264.178 1121.42 c 0
 161.949 1076.92 44.2998 1131.43 29.7217 1253.01 c 0
 13.9531 1384.58 78.6064 1633.9 155.82 1738.03 c 0
 248.695 1863.31 458.618 1948.67 550.154 1772 c 0
 602.277 1671.4 601.734 1355.53 557.608 1253.01 c 0
 512.112 1147.29 374.93 961.955 369.629 1190.07 c 1
1047.33 1253.01 m 1
 995.211 1209.12 941.912 1156.79 881.672 1126.5 c 0
 787.441 1079.65 662.276 1166.09 644.145 1268.74 c 0
 617.895 1417.57 688.451 1597.78 758.119 1724.8 c 0
 825.453 1847.54 989.984 1807.23 1046.38 1903.05 c 0
 1098.93 1992.33 1041.17 2157.96 1143.99 2228.53 c 0
 1200.84 2271.19 1240.54 2197.06 1250.9 2149.8 c 0
 1278.85 2017.99 1246.55 1874.57 1254.12 1740.77 c 0
 1261.23 1614.9 1323.34 1487.57 1292.69 1363.15 c 0
 1260.92 1234.16 1090.39 1005.55 1047.33 1253.01 c 1
1848.83 2211.44 m 0
 1956.72 2268.81 1935.88 2044.03 1935.88 1992.52 c 0
 1935.88 1841.22 1928.88 1685.38 1934.95 1536.22 c 0
 1935.88 1457.55 1975.76 1377.51 1961.23 1300.21 c 0
 1950.1 1241.05 1893.91 1127.13 1840.56 1099.39 c 0
 1798.4 1076.86 1754.25 1111.4 1709.98 1103.8 c 0
 1623.82 1087.88 1559.38 1037.89 1469.02 1069.67 c 0
 1239.05 1149.49 1346.76 1509.27 1431.86 1661.86 c 0
 1499.14 1785.49 1663.8 1772.24 1724.62 1871.41 c 0
 1780.07 1960.81 1736.42 2149.86 1848.83 2211.44 c 0
EndSplineSet
Validated: 33
EndChar

StartChar: uni008C
Encoding: 140 140 24
Width: 3791
VWidth: 0
Flags: W
VStem: 33.832 310.047<1241.21 1450.49> 2833.29 194.12<1209.04 1406.5> 3152.9 203.38<1270.67 1932.05> 3447.91 281.73<1873.44 2175.52>
LayerCount: 2
Fore
SplineSet
1994 1684 m 1
 1800.52 1549.84 2014 1428 2108 1462 c 1
 2243.82 1536.68 2126.65 1752.49 1994 1684 c 1
596.047 1423.39 m 1
 729.488 1480.09 734.803 1552.52 741.322 1624.8 c 1
 608.135 1680.67 564.232 1539.28 596.047 1423.39 c 1
1269.25 1583.01 m 1
 1331.92 1467.66 1374.73 1483.09 1400 1614 c 1
 1384 1670 1277.76 1665.99 1269.25 1583.01 c 1
741.322 1376.91 m 1
 701.518 1287.15 516.539 984.584 407.189 1160 c 0
 276.441 1381.07 523.41 1924.07 755.852 1956.16 c 0
 812.523 1964.01 924.604 1911.88 958.627 1861.49 c 0
 991.895 1810.72 973.037 1655.79 973.764 1593.81 c 0
 973.764 1407.89 1128.48 1144.51 929.412 1015.09 c 0
 787.535 922.038 779.473 1299.44 770.379 1376.91 c 1
 741.322 1376.91 l 1
2833.29 1655.79 m 1
 2580.61 1523.41 2823.14 1949.62 2869.25 2027.61 c 0
 2891.2 2064.75 2926.78 2129.26 2976.43 2120.59 c 0
 3046.11 2111.34 3021.89 1940.42 3028.31 1888.19 c 0
 3048.85 1721.34 3071.18 1461.86 3027.41 1299.44 c 0
 3014.25 1250.59 2900.71 1032.66 2840.92 1136.02 c 0
 2798.38 1209.53 2831.03 1326.66 2833.29 1406.5 c 0
 2837.03 1489.47 2833.29 1572.74 2833.29 1655.79 c 1
3298.17 2104.37 m 0
 3347.07 2130.29 3390.02 2097.21 3389.09 2042.83 c 0
 3385.34 1965.65 3360.05 1888.19 3356.28 1810.72 c 0
 3349.51 1631.93 3443.45 1252.96 3251.92 1147.96 c 0
 3128.65 1080.63 3152.9 1330.43 3152.9 1392.4 c 0
 3152.9 1623.87 3032.12 1958.19 3298.17 2104.37 c 0
290.969 2305.17 m 0
 353.219 2337.49 363.359 2256.7 352.492 2213.53 c 0
 302.693 2015.96 174.574 1856.89 210.545 1640.29 c 0
 229.852 1524.03 324.049 1451.46 343.879 1345.92 c 0
 357.535 1273.24 310.029 1134.64 244.699 1101.71 c 0
 116.639 1036.05 44 1322.14 33.832 1407.89 c 0
 0.417969 1640.29 76.8613 1877.2 160.221 2089.6 c 0
 189.275 2158.19 226.104 2269.06 290.969 2305.17 c 0
3588.68 2274.59 m 0
 3680.13 2288.32 3719.47 2064.53 3729.64 1996.64 c 0
 3760.86 1764.24 3701.69 1488.06 3637.79 1268.45 c 0
 3615.94 1190.99 3556.95 1067.04 3472.5 1058.77 c 0
 3397.64 1050.57 3408.96 1142.72 3425.33 1190.99 c 0
 3484.3 1364.74 3538.69 1559.87 3522.93 1748.75 c 0
 3514.23 1853.17 3440.72 1955.01 3447.91 2058.61 c 0
 3452.63 2126.58 3516.09 2263.98 3588.68 2274.59 c 0
1453.17 1345.92 m 1
 1380.54 1288.76 1331.75 1160 1234.69 1148.29 c 0
 993.129 1113.52 1060.93 1547.33 1119.04 1671.28 c 0
 1158.66 1748.75 1206.21 1824.94 1278.84 1872.69 c 0
 1319.88 1901.28 1395.06 1908.81 1422.62 1955.03 c 0
 1471.72 2042.28 1444.01 2182.23 1543.36 2244.53 c 0
 1642.03 2312.16 1642.03 2113.4 1641.67 2058.55 c 0
 1640.67 1969.54 1621.33 1884.93 1631.66 1795.23 c 0
 1656.49 1578.32 1753.2 1403.01 1635.28 1206.48 c 0
 1519.03 1012.84 1453.17 1212.57 1453.17 1345.92 c 1
2150.5 1314.93 m 1
 2113.46 1275.77 2076.93 1234.6 2034.28 1202.2 c 0
 1914.95 1111.54 1796.63 1188.82 1765.94 1330.43 c 0
 1732.54 1484.52 1787.31 1649.2 1863.04 1779.73 c 0
 1939.69 1913.42 2069.74 1907.97 2156.31 2005.36 c 0
 2196.88 2051.01 2201.78 2139.95 2233.03 2195.36 c 0
 2254.88 2234.11 2301.26 2285.19 2349.21 2265.28 c 0
 2400.66 2243.9 2368.41 2105.06 2368.19 2058.61 c 0
 2364.53 1908.95 2343.22 1760 2353.88 1609.31 c 0
 2363.73 1500.85 2411.99 1438.4 2368.41 1330.43 c 0
 2306.54 1171.87 2155.2 1080.57 2150.5 1314.93 c 1
EndSplineSet
Validated: 33
EndChar

StartChar: uni008D
Encoding: 141 141 25
Width: 2048
VWidth: 0
Flags: H
LayerCount: 2
Back
Fore
SplineSet
2463.64 518.632 m 5
 2631.57 484.597 2671.61 580.271 2634.26 751.645 c 5
 2542.92 723.389 2484.57 615.984 2463.64 518.632 c 5
444.746 378.824 m 1
 343.317 413.963 238.463 419.384 182.758 534.166 c 0
 130.607 641.725 179.844 739.389 235.149 829.316 c 0
 345.223 1010.94 528.914 1176.16 741.424 1062.33 c 0
 862.914 1000.19 712.719 837.316 642.47 801.417 c 0
 597.784 778.581 547.752 798.248 501.616 804.306 c 0
 478.654 807.148 430.528 813.782 425.281 778.395 c 0
 412.045 704.048 561.998 696.483 601.125 682.238 c 0
 707.885 642.905 729.098 537.739 707.359 425.427 c 0
 658.01 192.414 259.917 -82.7588 46.6523 57.3125 c 0
 -48.3916 121.594 60.8701 293.215 131.958 331.554 c 0
 236.287 388.021 327.948 281.472 444.746 378.824 c 1
1738.55 332.222 m 1
 1675.21 467.556 1474.47 423.501 1468.41 596.303 c 0
 1462.31 826.645 1832.55 1225.94 2030.95 994.071 c 0
 2107.58 904.502 1970.48 743.132 1880.72 744.996 c 0
 1823.5 746.208 1791.91 828.741 1729.01 798.248 c 0
 1602.06 741.299 1702.53 611.837 1781.2 580.769 c 1
 1866.51 743.878 2046.57 556.116 2006.59 409.893 c 0
 1960.06 239.017 1610.59 -96.2734 1431.93 39.8525 c 0
 1375.17 82.6182 1411.54 161.346 1442.45 207.933 c 0
 1522.99 332.222 1615.52 307.273 1738.55 332.222 c 1
1326.24 1030.76 m 0
 1485.19 1121.44 1430.52 776.873 1421.65 705.042 c 0
 1391.24 456.495 1247.88 105.376 1013.45 19.2695 c 0
 899.709 -21.9736 814.403 75.333 802.815 192.414 c 0
 778.944 398.584 760.276 854.264 932.821 988.417 c 0
 987.759 1031.14 1040.19 984.658 1051 922.288 c 0
 1073.53 790.201 1037.18 624.404 1041.39 487.563 c 0
 1041.88 456.495 1034.58 312.912 1094.7 337.597 c 0
 1144.31 357.946 1169.84 484.363 1179.95 534.166 c 0
 1212.1 695.442 1162.22 935.647 1326.24 1030.76 c 0
2875.96 316.688 m 5
 2897.72 215.544 2769.17 -80.8486 2644.81 21.5381 c 4
 2575.22 79.8682 2653.82 250.807 2561.06 293.712 c 4
 2476.4 332.222 2255.58 207.777 2193.51 294.986 c 4
 2146.81 361.736 2236.16 481.055 2269.47 534.166 c 4
 2364.12 695.38 2469.06 838.885 2583.37 984.658 c 4
 2634.26 1050.68 2687.13 1140 2776.16 1138.4 c 4
 2929.38 1134.13 2839.09 779.793 2867.91 673.974 c 4
 2894.07 579.635 2982.77 648.017 3040.4 606.835 c 4
 3167.03 516.364 2937.23 351.235 2875.96 316.688 c 5
EndSplineSet
Validated: 33
EndChar

StartChar: slash
Encoding: 47 47 26
Width: 2048
VWidth: 0
LayerCount: 2
Fore
SplineSet
0 -720 m 9
 1410 2160 l 17
 1615 2575 1785 2460 1745 2215 c 1
 1747.63 2206.84 1734.77 2223.54 1680 2080 c 5
 1650.32 2031.9 1595.04 1917.71 1600 1895 c 9
 1600 1895 730 175 240 -695 c 1
 77.2372 -910.674 49.8501 -765.439 0 -720 c 9
EndSplineSet
Validated: 33
EndChar

StartChar: four
Encoding: 52 52 27
Width: 962
VWidth: 0
Flags: HWO
LayerCount: 2
Fore
SplineSet
304.559 1441.63 m 1
 472.489 1407.6 512.529 1503.27 475.179 1674.64 c 1
 383.839 1646.39 325.489 1538.98 304.559 1441.63 c 1
716.879 1239.69 m 1
 738.639 1138.54 610.089 842.151 485.729 944.538 c 0
 416.139 1002.87 494.739 1173.81 401.979 1216.71 c 0
 317.319 1255.22 96.499 1130.78 34.4287 1217.99 c 0
 -12.2705 1284.74 77.0791 1404.05 110.389 1457.17 c 0
 205.039 1618.38 309.979 1761.88 424.289 1907.66 c 0
 475.179 1973.68 528.049 2063 617.079 2061.4 c 0
 770.299 2057.13 680.009 1702.79 708.829 1596.97 c 0
 734.989 1502.63 823.688 1571.02 881.319 1529.83 c 0
 1007.95 1439.36 778.149 1274.24 716.879 1239.69 c 1
EndSplineSet
EndChar

StartChar: five
Encoding: 53 53 28
Width: 766
VWidth: 0
Flags: HW
LayerCount: 2
Fore
SplineSet
338.479 1648.17 m 5
 442.032 1636.6 561.581 1674.71 655.14 1614.36 c 4
 751.915 1551.94 759.141 1395.38 705.777 1302.03 c 4
 612.507 1140.22 263.611 866.121 64.4512 999.155 c 4
 -44.8574 1074.02 75.3105 1186.65 150.986 1233.68 c 4
 208.459 1268.18 533.414 1137.21 468.281 1330.66 c 4
 419.303 1480.9 255.305 1393.54 165.408 1350.93 c 4
 120.843 1329.81 60.3398 1325.72 55.9844 1388.56 c 4
 34.7549 1699.14 201.825 1905.81 482.704 1985.96 c 4
 536.773 2001.39 655.774 2066.42 708.662 2036.55 c 4
 774.068 1994.31 690.014 1919.8 659.668 1889.46 c 4
 551.645 1781.42 388.598 1799.58 338.479 1648.17 c 5
EndSplineSet
EndChar

StartChar: one
Encoding: 49 49 29
Width: 490
VWidth: 0
Flags: HW
LayerCount: 2
Fore
SplineSet
181.314 1569.26 m 1
 89.7393 1505.84 -40.3525 1463.79 41.3047 1627.77 c 0
 90.4707 1726.49 177.496 1801.94 239.828 1891.07 c 0
 271.616 1932.22 310.543 2004.79 370.842 2000.13 c 0
 467.814 1992.62 400.567 1749.04 393.355 1684.97 c 0
 371.486 1490.88 437.52 1257.08 394.569 1071.89 c 0
 382.238 1018.73 254.457 787.316 184.152 888.341 c 0
 134.342 959.831 163.979 1171.92 166.686 1257.89 c 0
 174.189 1362.25 181.314 1464.44 181.314 1569.26 c 1
467.143 1583.89 m 0
EndSplineSet
EndChar

StartChar: three
Encoding: 51 51 30
Width: 776
VWidth: 0
Flags: HW
LayerCount: 2
Fore
SplineSet
338.096 1697.7 m 5
 181.904 1704.4 -65.9316 1722.95 42.1934 1934.49 c 4
 57.9922 1965.67 73.3877 1997.53 104.219 2018 c 4
 184.844 2073.86 317.044 1987.79 407.755 1978.72 c 4
 486.93 1970.79 676.15 2057.72 731.189 1995.8 c 4
 815.96 1900.38 586.14 1763.42 573.82 1683.77 c 4
 566.22 1635.13 636.71 1586.25 655.4 1544.39 c 4
 700.33 1438.68 662.6 1299.94 597.17 1210.08 c 4
 502.199 1079.65 379.752 990.5 226.639 940.79 c 4
 168.725 921.996 48.1152 898.215 66.2539 1001.1 c 4
 95.4004 1166.54 222.334 1164.13 338.096 1223.71 c 4
 374.276 1242.33 446.012 1282.26 421.688 1333.42 c 4
 352.027 1485.68 145.555 1249.34 62.6465 1275.73 c 4
 -4.4082 1297.07 38.1816 1380.86 59.4551 1419.06 c 4
 128.893 1543.26 254.504 1586.25 338.096 1697.7 c 5
EndSplineSet
EndChar
